<?xml version="1.0" encoding="UTF-8"?>
<svg id="Layer_1" data-name="Layer 1" xmlns="http://www.w3.org/2000/svg" viewBox="0 0 1080 672.51">
  <defs>
    <style>
      .cls-1 {
        fill: #fff;
      }

      .cls-2 {
        fill: #ff9800;
      }

      .cls-3 {
        fill: #2c7865;
      }
    </style>
  </defs>
  <rect class="cls-1" x="-.38" y="-.68" width="1080.77" height="673.87"/>
  <g>
    <g>
      <path class="cls-2" d="M731.22,297.32l1.35,1.35,1.6,1.6c-3.28,5.47-8.27,9.85-14.94,13.13-6.68,3.28-13.85,4.93-21.51,4.93-7.01,0-13.63-2.19-19.87-6.57-6.24-4.38-10.78-10.18-13.63-17.4l-.98-1.97-1.31,1.64c-16.2,17.3-35.03,25.94-56.48,25.94-12.92,0-23.43-3.99-31.52-11.99-8.1-7.99-12.15-17.02-12.15-27.09,0-7.66,1.15-14.23,3.45-19.7,2.3-5.47,6.95-11.11,13.96-16.91,7-5.8,17.02-11.49,30.04-17.07,13.02-5.58,30.05-11.76,51.06-18.55l.98-.33v-.98c-.44-18.17-2.9-31.19-7.39-39.07-4.49-7.88-11.66-11.82-21.51-11.82-6.53,0-17.97,4.15-22.1,9.04-3.46,4.09-8.49,10.19-5.86,15.81,1.23,2.62,3.75,4.7,4.1,7.58.25,2.07-.75,4.15-2.27,5.58-1.52,1.42-3.5,2.26-5.52,2.79-4.76,1.25-10.03.86-14.33-1.55s-7.46-6.94-7.75-11.85c-.24-4.04,1.41-8,3.79-11.27,12.13-16.64,42.2-21.7,61.42-21.7,41.81,0,62.72,17.52,62.72,52.54v69.94c0,8.54,1.64,15.16,4.92,19.87,3.28,4.71,7.11,7.06,11.49,7.06,2.63,0,5.36-.98,8.21-2.96ZM661.93,287.99l.66-.33-.33-.98c-.66-2.62-.98-5.45-.98-8.51l.33-64.84-1.64.65c-18.12,5.68-31.39,12.72-39.79,21.12-8.41,8.41-12.61,18.83-12.61,31.27,0,9.82,2.4,17.52,7.2,23.09,4.8,5.57,11.46,8.35,19.98,8.35,10.26,0,19.32-3.28,27.18-9.82Z"/>
      <path class="cls-2" d="M797.54,270.7c0,7.21.63,13.16,1.89,17.85,1.26,4.69,3.15,8.38,5.68,11.09,2.52,2.7,5.77,4.51,9.73,5.41v3.49c-12.32-.35-24.11-.53-35.36-.53s-23.93.18-37.47.53v-3.5c6.2-1.06,11.02-3.63,14.47-7.7,3.45-4.07,5.18-10.98,5.18-20.72v-51.26c0-11.16-6.55-17.35-19.65-18.59v-3.31c18.87-7.16,36.25-16.94,52.14-29.35l3.93,2.36-.54,94.24ZM778.17,160.35c-6.49,0-11.8-1.97-15.92-5.92-4.12-3.95-6.18-8.99-6.18-15.13,0-6.67,1.97-11.88,5.92-15.66,3.95-3.77,9.34-5.66,16.19-5.66,4.21,0,7.98.88,11.32,2.63,3.33,1.76,5.92,4.26,7.76,7.5,1.84,3.25,2.76,6.97,2.76,11.19,0,6.84-2.15,12.07-6.45,15.66-4.3,3.6-9.43,5.4-15.4,5.4Z"/>
      <g>
        <path class="cls-3" d="M678.2,352.24c2.88-1.6,4.55-4.09,5-7.49.45-3.39-.47-6.29-2.76-8.68l-1.34-1.35c-3.58,2.5-7.26,6.39-11.04,11.68-3.78,5.29-6.86,10.83-9.25,16.62l-20.73,51.05-24.91-59.29c-2.19-5.29-2.59-9.13-1.19-11.53,1.59-2.69,5.92-4.39,12.98-5.09v-2.4c-11.04.2-20.39.3-28.04.3s-15.76-.1-24.31-.3v2.4c4.18.6,7.43,2.2,9.77,4.79,2.34,2.6,5,7.39,7.98,14.37l36.25,82.34h3.58l28.04-67.37c1.79-3.39,3.78-6.41,5.97-9.06,2.19-2.64,4.37-4.79,6.56-6.44,2.19-1.65,4.67-3.17,7.46-4.57Z"/>
        <path class="cls-3" d="M734.82,426.22l-1.35-2.69c-5.99,6.49-12.23,9.96-18.71,10.4-6.49.45-12.3-2-17.44-7.34-5.14-5.34-8.86-12.85-11.15-22.53l34.58-13.47,16.17-6.29c-1.9-4.59-4.54-8.48-7.93-11.68-3.39-3.19-7.06-5.59-11-7.19-3.94-1.6-8.16-2.44-12.65-2.55-11.18,0-20.11,3.34-26.8,10.03-6.99,6.99-10.43,16.67-10.33,29.05.1,11.68,3.42,21.09,9.96,28.22,6.54,7.14,15.2,10.7,25.98,10.7,6.49,0,12.35-1.45,17.59-4.34,5.24-2.89,9.61-6.34,13.1-10.33ZM685.56,376.51c1.99-6.09,5.69-9.68,11.08-10.78,3.99-.7,7.73.1,11.23,2.4,1.99,1.5,4.19,4.04,6.59,7.64,2.4,3.59,4.19,7.44,5.39,11.53l-34.58,13.03c-1.8-9.78-1.7-17.72.3-23.81Z"/>
        <path class="cls-3" d="M805.71,434.07c-1.35-1.45-3.27-2.77-5.76-3.97-2.5-1.2-4.72-2.12-6.66-2.77-1.95-.65-4.57-1.3-7.86-1.95-3.29-.65-5.86-1.1-7.71-1.35-1.85-.25-4.42-.57-7.71-.97-5.59-.6-10.01-1.92-13.25-3.97-3.24-2.04-3.82-4.47-1.72-7.26,1.89-2.4,3.09-3.94,3.59-4.64,5.69,2.2,11.03,3.29,16.02,3.29,10.38,0,18.56-2.1,24.55-6.29,5.99-4.19,8.98-9.88,8.98-17.07,0-5.49-1.6-10.05-4.79-13.7-2.55-2.91-5.78-5.22-9.67-6.95.7-.58,1.58-.95,2.53-.98,4.24-.17,9.77.38,14.2-4.01,6.72-6.65,3.74-17.37,3.74-17.37-5.29,6.84-14.31,2.34-19.59,7.58-4.75,4.7-3.6,10.72-3.58,10.81.06-.11,2.48-6.81,9.18-7.96,8.47-1.46,10.87-4.25,10.87-4.25-4.3,6.35-10.06,3.22-15.78,9.46-1.97,2.15-3.1,4.12-3.75,5.85-.29-.11-.58-.22-.87-.32l-2.84-.9c-3.69-.9-7.64-1.35-11.83-1.35-10.28,0-18.44,2.4-24.48,7.19-6.04,4.79-9.06,10.33-9.06,16.62,0,8.48,4.49,14.87,13.47,19.16-.4.6-1.07,1.52-2.02,2.77-.95,1.25-1.67,2.22-2.17,2.92-10.98,14.37-10.58,23.66,1.2,27.85,1.8.6,4.14,1.15,7.04,1.65,2.89.5,6.11.95,9.66,1.35,3.54.4,6.01.75,7.41,1.05,5.69,1,9.53,3.02,11.53,6.06.68,1.04,1.17,2.13,1.45,3.27,0,0,.89,3.48-.55,7.13-2.1,5.34-8.63,7.37-13.06,8.74-6.37,1.97-11.77,1.56-15.69,1.28-1.49-.11-5.12-.43-9.64-1.61-3.8-.99-6.93-1.81-10.37-4.08-2.74-1.81-6.71-4.43-7.07-8.32-.28-2.99,1.85-3.83,1.34-6.49-.61-3.22-4.52-6.45-8.78-6.2-4.6.27-7.95,4.45-8.2,8.01-.3,4.23,2.1,8.29,5.33,11.04,6.36,5.41,16.15,8.21,24.21,9.76,5.19,1,10.93,1.5,17.22,1.5,8.08,0,15.69-1.3,22.83-3.89,7.14-2.6,12.75-5.97,16.84-10.11,4.09-4.14,6.14-8.51,6.14-13.1,0-2.6-.47-4.97-1.42-7.11-.95-2.14-2.1-3.94-3.44-5.39ZM760.79,376.81c.25-4.49,1.92-7.49,5.02-8.98,3.39-1.7,6.89-1.37,10.48.97,3.59,2.35,6.89,6.71,9.88,13.1,2.79,5.89,4.12,10.91,3.97,15.05-.15,4.14-1.62,7.06-4.42,8.76-2.2,1.2-4.52,1.55-6.96,1.05-2.45-.5-4.97-2.02-7.56-4.57-2.6-2.55-4.84-5.81-6.74-9.81-2.69-5.89-3.92-11.08-3.67-15.57Z"/>
      </g>
      <path class="cls-3" d="M492.32,329.44c-.4-2-1.69-4.67-3.39-6.11-.61-.77-1.39-1.48-2.09-2.19-2.34-2.39-4.56-4.84-5.59-7.89-1.68-4.99.3-9.79,3.13-14.13-.34.24-.66.5-.97.76-3.95,3.28-6.86,7.97-6.89,12.74-.02,4.03,1.61,7.62,4.95,10.47,4.38,3.65,7.9,6.7,7.99,12.29.05,3.14-1.07,5.93-2.3,8.83,3.52-4.2,6.22-9.52,5.16-14.76Z"/>
      <path class="cls-3" d="M458.27,340.8c3.08-2.14,5.73-4.2,6.54-8.29.47-2.42-.21-4.96-1.47-7-1.22-1.99-2.93-3.58-4.53-5.21-.94-.96-1.86-1.94-2.8-2.89-.59-.8-1.18-1.61-1.71-2.46-3.94-6.29-3.52-13.92-2.18-21.01-.94,2.26-2.02,4.39-2.72,6.76-1.73,5.85-1.62,11,1.03,16.5.89,2.02,2,3.68,3.44,5.29,3.86,4.33,8.87,7.35,6.56,14.26-.5,1.49-1.19,2.84-2.15,4.04Z"/>
      <path class="cls-3" d="M468.32,306.71c1.38-4.62,1.22-8.27-.71-12.98-.74-1.81-1.66-3.52-2.65-5.18,4.03,4.24,6.42,8.16,6.94,14.49.12,1.5.03,3.1-.37,4.49-.41,1.73-1.16,3.32-1.72,4.98-.76,2.22-1,4.99-.1,7.36,1.25,3.32,4.13,5.23,6.81,6.64-1.51-.18-2.99-.34-4.41-1.13-2.56-1.42-4.21-3.69-5.28-6.68-1.09-3.05-.88-5.89.18-8.72.42-1.11.92-2.16,1.31-3.28Z"/>
      <path class="cls-2" d="M558.89,306.56c-5.9-13.49-14.02-21.51-20.65-28.05-11.82-11.67-23.2-17.98-39.17-26.83-4.7-2.61-11.43-5.96-24.93-12.6-13.35-6.57-19.28-9.2-31.76-15.64-14.81-7.63-21.77-11.81-29.22-18.08-5.53-4.66-8.27-7.01-10.82-11-9.27-14.47-4.98-31-4.15-34.18,2.11-8.15,5.9-13.61,8.02-16.8,12.64-18.95,35.15-31.01,62.36-24.59,20.27,4.79,33.92,19.49,26.04,39.02-1.49,3.71-4.14,6.46-6.62,9.3-2.94,3.34-5.63,6.81-5.94,12.13-.13,2.17.32,4.67,1.2,7.09,1.11,3.12,2.96,6.1,5.2,7.97,10.06,8.38,29.6,4.8,33.15-7.69,7.01-24.63-14.31-55.45-37.37-67.11-47.43-23.97-98.81-.13-112.18,41.03-5.8,17.85-1.81,35.96-1.81,35.96,2.3,9.97,6.5,17.1,9.01,21.28,7.24,12.09,15.7,19.35,20.93,23.76,8.24,6.96,15.16,10.81,24.47,15.92,4.3,2.36,7.89,4.17,11.16,5.7,3.69,1.73,8.15,3.8,23.74,10.23,10.32,4.26,9.15,3.68,11.16,4.57,3.22,1.41,14.41,6.39,25.2,14.08,11.03,7.86,24.74,17.63,30.4,34.91,2.54,7.75,2.68,14.63,2.46,18.95-2.17.08-4.35.15-6.53.21-36.9,1.05-72.63-.52-107.09-4.2,0,0,25.92,31.95,89.16,33.26,0,0-56.51,12.5-105.02-26.63,0,0-19.49-13.55-41.14-35.33-5.42-5.44-10.97-11.41-16.39-17.81-.21-.23-.41-.47-.62-.7-6.08-6.89-11.66-12.87-16.5-17.86-2.79-2.87-4.91-4.99-6.29-6.36-13.04-12.98-19.71-19.56-27.04-23.95-3.39-2.03-8.66-4.78-15.82-6.95-2.01-.61-6.32-1.62-11.42-.31-2.69.69-7.03,1.81-9.39,5.71-2.71,4.48-1.36,10.25.75,13.66,2.27,3.68,6.07,5.65,10.92,8.17,1.1.57,5.34,2.71,5.34,2.71,15.13,5.89,28.28,16.16,41.45,27.52,2.77,2.38,5.53,4.82,8.31,7.27,2.51,2.2,5.23,4.92,8.76,8.7,3.67,3.9,8.22,8.94,14.31,15.68.02.04.06.08.1.12,9.62,10.67,12.63,14.64,31.58,36.58,10.81,12.51,16.31,18.87,21.2,24.01,10.61,11.18,18.18,17.95,23.71,22.29,3.9,3.07,6.78,4.93,8.99,6.29,3.63,2.23,9.99,6.07,18.85,9.3,4.4,1.61,8.72,2.8,12.92,3.65,11.23,2.32,21.56,2.28,30.02,1.4,0,0,13.9-1.89,29.41-10.8,9.7-5.56,20.04-13.86,28.02-26.15,0,0,10.21-15.92,14.14-38.62.7-4.06,1.61-7.88,1.94-13.17.39-6.33.54-20.96-6.48-37.01Z"/>
      <path class="cls-3" d="M298.83,343.63c-.2,31.74,12.03,59.34,12.03,59.34,4.53,9,11.74,21.32,22.78,34.08,3.76,4.34,9.28,10.66,17.65,17.45,18.93,15.33,37.43,20.9,47.03,23.69,7.34,2.14,17.8,4.55,30.71,5.44,44.99,2.6,79-25.22,79-25.22,34.08-22.9,49.28-66.43,49.75-67.78-12.08,23.07-30.28,38.6-46.19,48.58-17.96,11.29-33,15.5-33,15.5-5.81,1.21-13.69,2.46-23.09,2.81-7.45.28-21.38.69-38.27-3.9-21.92-5.97-36.92-17.14-46.31-24.27-3.23-2.46-5.83-4.62-7.62-6.17-11-10.45-21.22-25.48-24.93-33.08,7.09,11.51,31.56,28.08,31.56,28.08,8.63,6,16.26,9.79,21.77,12.17,16.21,7,29.08,9.91,33.18,10.65h0c10.48,1.35,23.29,1.75,37.56-.61,3.71-.61,7.23-1.37,10.55-2.21-3.29-.18-6.78-.54-10.44-1.17-15.11-2.57-27.07-8.52-35.5-13.92-2.56-1.79-6.54-4.67-11.18-8.49-15.74-12.97-22.91-21.68-46.15-48.59-4.13-4.78-11.35-11.93-22.15-17.23-1.49-.74-5.58-2.67-11.32-4.31-1.03-.3-2.1-.58-3.22-.85-1.76-.43-5.98-1.36-11.55-1.76-2.11-.15-7.37-.44-14.14.32-3.45.39-6.35.95-8.53,1.44Z"/>
    </g>
    <g>
      <path class="cls-3" d="M318.19,540.97c-1.08-1.12-2.59-1.93-4.55-2.43v-.65c3.13-.2,5.81-.88,8.02-2.03,2.21-1.15,3.9-2.73,5.07-4.73,1.17-2,1.75-4.41,1.75-7.21,0-3.16-.73-5.83-2.2-8.04-1.47-2.2-3.58-3.88-6.34-5.03-2.76-1.15-6.03-1.73-9.81-1.73h-25.97v50.33h7.91v-19.41h9.24c2.15,0,3.88.19,5.19.56,1.3.37,2.39.97,3.27,1.79.88.82,1.69,1.9,2.44,3.25l8.04,13.81h9.32l-8.42-14.41c-.9-1.59-1.89-2.95-2.97-4.07ZM310.01,533.57h-17.93v-17.25h17.93c3.35,0,5.88.68,7.58,2.03,1.7,1.35,2.55,3.55,2.55,6.6s-.85,5.38-2.55,6.68c-1.7,1.3-4.23,1.95-7.58,1.95Z"/>
      <polygon class="cls-3" points="337.37 509.12 335.21 509.12 335.21 559.45 337.37 559.45 343.12 559.45 375.47 559.45 375.47 552.26 343.12 552.26 343.12 537.88 374.03 537.88 374.03 530.69 343.12 530.69 343.12 516.31 375.47 516.31 375.47 509.12 343.12 509.12 337.37 509.12"/>
      <path class="cls-3" d="M417.25,534.8c-2.25-1.2-5.06-2.1-8.45-2.71l-12.35-2.1c-1.97-.45-3.59-.94-4.85-1.47-1.26-.53-2.2-1.24-2.8-2.14-.61-.9-.91-2.05-.91-3.46,0-1.55.43-2.82,1.29-3.8.86-.98,2.23-1.72,4.13-2.22,1.89-.5,4.38-.75,7.46-.75,3.53,0,6.34.34,8.41,1.02,2.07.68,3.56,1.7,4.47,3.08.91,1.38,1.36,3.09,1.36,5.15v.98h7.91v-.45c0-3.31-.77-6.25-2.32-8.83-1.54-2.58-3.91-4.62-7.1-6.13-3.19-1.5-7.26-2.25-12.22-2.25-4,0-7.38.41-10.14,1.24-2.76.83-5,1.94-6.72,3.34-1.72,1.4-2.99,2.98-3.8,4.74-.81,1.75-1.21,3.53-1.21,5.34,0,2.76.62,5.05,1.86,6.88,1.24,1.83,2.97,3.28,5.2,4.36,2.23,1.08,4.76,1.89,7.59,2.44l12.45,2.03c3.19.6,5.49,1.4,6.91,2.41,1.42,1,2.13,2.61,2.13,4.81,0,1.55-.42,2.84-1.25,3.87-.84,1.03-2.22,1.78-4.14,2.26-1.92.48-4.51.71-7.74.71-3.75,0-6.68-.34-8.81-1.01s-3.64-1.68-4.56-3.01c-.91-1.33-1.37-2.99-1.37-5v-1.2h-7.91v.45c0,3.51.86,6.55,2.58,9.13,1.72,2.58,4.28,4.57,7.69,5.98,3.41,1.4,7.61,2.1,12.61,2.1s9.06-.69,12.2-2.07c3.13-1.38,5.43-3.19,6.89-5.45,1.46-2.25,2.2-4.66,2.2-7.21s-.56-4.61-1.67-6.46c-1.11-1.85-2.79-3.38-5.04-4.58Z"/>
      <polygon class="cls-3" points="446.65 509.12 426.52 509.12 426.52 516.31 446.65 516.31 446.65 559.45 454.56 559.45 454.56 516.31 473.97 516.31 473.97 509.12 454.56 509.12 446.65 509.12"/>
      <path class="cls-3" d="M497.87,509.12l-22.46,50.33h8.87l5.75-12.94h26.95l5.75,12.94h9.02l-22.46-50.33h-11.42ZM493.23,539.32l7.03-15.82,2.95-7.19h.61l2.95,7.19,7.03,15.82h-20.56Z"/>
      <path class="cls-3" d="M574.62,538.1c0,3.41-.52,6.17-1.57,8.28-1.05,2.11-2.7,3.65-4.97,4.63-2.27.98-5.24,1.47-8.92,1.47s-6.58-.49-8.85-1.47c-2.27-.98-3.93-2.52-5-4.63-1.07-2.11-1.61-4.87-1.61-8.28v-28.98h-8.63v29.5c0,4.57.93,8.47,2.79,11.7,1.86,3.24,4.55,5.71,8.07,7.41,3.52,1.71,7.8,2.56,12.83,2.56s9.38-.85,12.9-2.56c3.52-1.7,6.21-4.18,8.07-7.41,1.86-3.24,2.79-7.14,2.79-11.7v-29.5h-7.91v28.98Z"/>
      <path class="cls-3" d="M623.74,540.97c-1.08-1.12-2.59-1.93-4.55-2.43v-.65c3.13-.2,5.81-.88,8.02-2.03,2.21-1.15,3.91-2.73,5.07-4.73,1.17-2,1.75-4.41,1.75-7.21,0-3.16-.73-5.83-2.2-8.04-1.47-2.2-3.58-3.88-6.34-5.03-2.76-1.15-6.03-1.73-9.81-1.73h-25.97v50.33h7.91v-19.41h9.24c2.15,0,3.88.19,5.19.56,1.3.37,2.39.97,3.27,1.79.88.82,1.69,1.9,2.44,3.25l8.04,13.81h9.32l-8.42-14.41c-.9-1.59-1.89-2.95-2.97-4.07ZM615.56,533.57h-17.93v-17.25h17.93c3.35,0,5.88.68,7.58,2.03,1.7,1.35,2.55,3.55,2.55,6.6s-.85,5.38-2.55,6.68c-1.7,1.3-4.23,1.95-7.58,1.95Z"/>
      <path class="cls-3" d="M659.17,509.12l-22.46,50.33h8.87l5.75-12.94h26.95l5.75,12.94h9.02l-22.46-50.33h-11.42ZM654.52,539.32l7.03-15.82,2.95-7.19h.61l2.95,7.19,7.03,15.82h-20.56Z"/>
      <polygon class="cls-3" points="734.95 538.86 735.31 547.95 734.73 547.95 728.35 538.56 706.38 509.12 696.84 509.12 696.84 559.45 704.75 559.45 704.75 530.03 704.45 521.35 705.05 521.35 711.38 530.18 734.12 559.45 742.85 559.45 742.85 509.12 734.95 509.12 734.95 538.86"/>
      <polygon class="cls-3" points="795.34 509.12 775.93 509.12 768.02 509.12 747.89 509.12 747.89 516.31 768.02 516.31 768.02 559.45 775.93 559.45 775.93 516.31 795.34 516.31 795.34 509.12"/>
    </g>
  </g>
</svg>